<?xml version="1.0" encoding="utf-8"?>
<!-- Generator: Adobe Illustrator 20.1.0, SVG Export Plug-In . SVG Version: 6.00 Build 0)  -->
<svg version="1.1" id="Capa_1" xmlns="http://www.w3.org/2000/svg" xmlns:xlink="http://www.w3.org/1999/xlink" x="0px" y="0px"
	 viewBox="0 0 486.4 486.4" style="enable-background:new 0 0 486.4 486.4;" xml:space="preserve">
<style type="text/css">
	.st0{fill:#313131;}
</style>
<g>
	<g>
		<g>
			<path class="st0" d="M395.2,0h-304C40.8,0,0,40.8,0,91.2v304c0,50.4,40.8,91.2,91.2,91.2h304c50.4,0,91.2-40.8,91.2-91.2v-304
				C486.4,40.8,445.6,0,395.2,0z M306.1,243.2l-39.9,0l0,145.9h-54.7V243.2H175v-50.3l36.5,0l-0.1-29.6c0-41,11.1-66,59.4-66h40.2
				v50.3h-25.2c-18.8,0-19.7,7-19.7,20.1l-0.1,25.2h45.2L306.1,243.2z"/>
		</g>
	</g>
</g>
</svg>
