<?xml version="1.0" encoding="utf-8"?>
<!-- Generator: Adobe Illustrator 20.1.0, SVG Export Plug-In . SVG Version: 6.00 Build 0)  -->
<svg version="1.1" id="Layer_1" xmlns="http://www.w3.org/2000/svg" xmlns:xlink="http://www.w3.org/1999/xlink" x="0px" y="0px"
	 viewBox="0 0 512 512" style="enable-background:new 0 0 512 512;" xml:space="preserve">
<style type="text/css">
	.st0{fill:#313131;}
</style>
<g>
	<g>
		<g>
			<path class="st0" d="M256,136.5c-65.9,0-119.5,53.6-119.5,119.5S190.1,375.5,256,375.5S375.5,321.9,375.5,256
				S321.9,136.5,256,136.5z M256,349.9c-51.8,0-93.9-42.1-93.9-93.9s42.1-93.9,93.9-93.9s93.9,42.1,93.9,93.9S307.8,349.9,256,349.9
				z"/>
			<path class="st0" d="M256,179.2c-42.3,0-76.8,34.5-76.8,76.8s34.5,76.8,76.8,76.8s76.8-34.5,76.8-76.8S298.3,179.2,256,179.2z"/>
			<path class="st0" d="M366.2,68.3H145.8c-42.7,0-77.5,34.8-77.5,77.5v220.4c0,42.7,34.8,77.5,77.5,77.5h220.4
				c42.7,0,77.5-34.8,77.5-77.5V145.8C443.7,103,409,68.3,366.2,68.3z M256,392.5c-75.3,0-136.5-61.3-136.5-136.5
				S180.7,119.5,256,119.5S392.5,180.7,392.5,256S331.3,392.5,256,392.5z M392.5,145.1c-14.1,0-25.6-11.5-25.6-25.6
				s11.5-25.6,25.6-25.6s25.6,11.5,25.6,25.6S406.7,145.1,392.5,145.1z"/>
			<path class="st0" d="M366.2,0H145.8C65.4,0,0,65.4,0,145.8v220.4C0,446.6,65.4,512,145.8,512h220.4
				c80.4,0,145.8-65.4,145.8-145.8V145.8C512,65.4,446.6,0,366.2,0z M460.8,366.2c0,52.1-42.4,94.6-94.6,94.6H145.8
				c-52.1,0-94.6-42.4-94.6-94.6V145.8c0-52.1,42.4-94.6,94.6-94.6h220.4c52.1,0,94.6,42.4,94.6,94.6V366.2z"/>
		</g>
	</g>
</g>
</svg>
