<svg id="Layer_1" data-name="Layer 1" xmlns="http://www.w3.org/2000/svg" viewBox="0 0 512 512"><defs><style>.cls-1{fill:#fff;}</style></defs><title>instagram1</title><path class="cls-1" d="M256,136.5A119.5,119.5,0,1,0,375.5,256,119.63,119.63,0,0,0,256,136.5Zm0,213.4A93.9,93.9,0,1,1,349.9,256,94,94,0,0,1,256,349.9Z"/><path class="cls-1" d="M256,179.2A76.8,76.8,0,1,0,332.8,256,76.95,76.95,0,0,0,256,179.2Z"/><path class="cls-1" d="M366.2,68.3H145.8a77.63,77.63,0,0,0-77.5,77.5V366.2a77.63,77.63,0,0,0,77.5,77.5H366.2a77.63,77.63,0,0,0,77.5-77.5V145.8A77.5,77.5,0,0,0,366.2,68.3ZM256,392.5c-75.3,0-136.5-61.3-136.5-136.5S180.7,119.5,256,119.5a136.5,136.5,0,0,1,0,273ZM392.5,145.1a25.6,25.6,0,1,1,25.6-25.6A25.65,25.65,0,0,1,392.5,145.1Z"/><path class="cls-1" d="M366.2,0H145.8C65.4,0,0,65.4,0,145.8V366.2C0,446.6,65.4,512,145.8,512H366.2C446.6,512,512,446.6,512,366.2V145.8C512,65.4,446.6,0,366.2,0Zm94.6,366.2a94.72,94.72,0,0,1-94.6,94.6H145.8a94.72,94.72,0,0,1-94.6-94.6V145.8a94.72,94.72,0,0,1,94.6-94.6H366.2a94.72,94.72,0,0,1,94.6,94.6V366.2Z"/></svg>