<svg id="Ebene_1" data-name="Ebene 1" xmlns="http://www.w3.org/2000/svg" viewBox="0 0 674.41 547.82"><defs><style>.cls-1{fill:#fff;}.cls-1,.cls-2{stroke:#fff;stroke-miterlimit:10;stroke-width:10px;}.cls-2{fill:none;}</style></defs><title>logo</title><path class="cls-1" d="M256,337.63" transform="translate(-138.92 -3.22)"/><path class="cls-2" d="M482.75,407.09a42.53,42.53,0,0,0-58.86,0l-11.31,11-11.31-11a42.53,42.53,0,0,0-58.86,0,39.53,39.53,0,0,0,0,57.1l11.31,11,58.86,57.1,58.86-57.1,11.31-11A39.53,39.53,0,0,0,482.75,407.09Z" transform="translate(-138.92 -3.22)"/><path class="cls-2" d="M548.17,326.21a23.78,23.78,0,0,0-32.9,0l-6.32,6.13-6.32-6.13a23.77,23.77,0,0,0-32.9,0,22.1,22.1,0,0,0,0,31.92l6.32,6.13,32.9,31.92,32.9-31.92,6.32-6.13A22.1,22.1,0,0,0,548.17,326.21Z" transform="translate(-138.92 -3.22)"/><path class="cls-2" d="M476.65,219,801.3,543.7,151,546,476.65,219l-.07-32.31s-84.63-31.51-84.74-81.8,16.94-110.33,95.5-94c28.07,5.84,37.64,9.95,43.44,22.47" transform="translate(-138.92 -3.22)"/></svg>