<?xml version="1.0" encoding="utf-8"?>
<!-- Generator: Adobe Illustrator 20.1.0, SVG Export Plug-In . SVG Version: 6.00 Build 0)  -->
<svg version="1.1" id="Capa_1" xmlns="http://www.w3.org/2000/svg" xmlns:xlink="http://www.w3.org/1999/xlink" x="0px" y="0px"
	 viewBox="0 0 512 512" style="enable-background:new 0 0 512 512;" xml:space="preserve">
<style type="text/css">
	.st0{fill:#333333;}
</style>
<path class="st0" d="M511.2,159.9C503.7,77.7,445.5,18,372.6,18c-48.5,0-93,26.1-118,68c-24.8-42.4-67.4-68-115.2-68
	C66.6,18,8.3,77.7,0.9,159.9c-0.6,3.6-3,22.8,4.4,53.9c10.6,45,35.1,85.9,70.9,118.3L254.5,494l181.4-161.9
	c35.8-32.4,60.3-73.3,70.9-118.3C514.2,182.7,511.7,163.6,511.2,159.9z M157.5,97.5c-43.4,0-78.8,35.3-78.8,78.8
	c0,5.4-4.4,9.8-9.8,9.8s-9.8-4.4-9.8-9.8c0-54.3,44.2-98.5,98.5-98.5c5.4,0,9.8,4.4,9.8,9.8C167.4,93.1,163,97.5,157.5,97.5z"/>
</svg>
