<svg id="Capa_1" data-name="Capa 1" xmlns="http://www.w3.org/2000/svg" viewBox="0 0 612 497.2"><defs><style>.cls-1{fill:#fff;}</style></defs><title>twitter1</title><path class="cls-1" d="M612,116.3a252.46,252.46,0,0,1-72.1,19.8,126.26,126.26,0,0,0,55.2-69.4,253.59,253.59,0,0,1-79.8,30.5A125.58,125.58,0,0,0,298.1,183a123,123,0,0,0,3.3,28.6C197.1,206.4,104.6,156.4,42.6,80.4A125.7,125.7,0,0,0,81.4,248a124.85,124.85,0,0,1-56.9-15.8v1.6A125.64,125.64,0,0,0,125.2,356.9a128.35,128.35,0,0,1-33.1,4.4A122.64,122.64,0,0,1,68.5,359a125.63,125.63,0,0,0,117.3,87.2A251.54,251.54,0,0,1,29.9,499.9,268.27,268.27,0,0,1,0,498.2a354.69,354.69,0,0,0,192.4,56.5c230.9,0,357.2-191.3,357.2-357.2l-.4-16.3A253.22,253.22,0,0,0,612,116.3Z" transform="translate(0 -57.5)"/></svg>